<svg xmlns="http://www.w3.org/2000/svg" xmlns:xlink="http://www.w3.org/1999/xlink" viewBox="0 0 200 100"><path d="M59.3 42.1c-3.8-9.8-18.9-11.8-19-15c-0.1-2.9 16.6-13.8 20.9-14.4c2.5 1 7.3 0 11.2 5c2.1 2.9-3.6 16.7-1.3 17.9c6.1 2.4 18.4 7.2 18.4 7.2l5.5-1.7c0 0 3.9 25.1 8.1 23.7c5.6-4.2 6.4-42.1 15.2-46.1c6.9-0.5 13.8-0.8 22.2-2c1.9-0.3 2.6 1 2.5 2.6c-5.3 51.8 3.4 76.1-0.3 75.5c-17.8-2.2-43.2-13.3-66-19.7c-2.1-2.7 3.7-7.9 2.4-9.5c-4.1-2.9-12.9-4.4-17.2-5.1c-2.5 .7-4.8 12.8-7.1 11.4c-7-1.6-19.5 8.2-20.5 4.1c-3.9-3.3 3.7-7.5 2.9-12.4c-2-8.1-7.9-17.4-3.4-27.1c1.3-2.2 15.3 .8 14.7 4.5c0 2 1.1 4.5 2.8 5.2c4.7 1.2 14.5 7 15.4 2.9c2.7-3.4-5.2-5.4-7.4-7Z" stroke="none" fill="none"/></svg>