<svg xmlns="http://www.w3.org/2000/svg" xmlns:xlink="http://www.w3.org/1999/xlink" viewBox="0 0 1024 512"><path d="M305 215.5c-14.2-9.9-21.7-27.8-35.8-37.8c-20.6-14.5-41.6-27.8-65.2-38.3c-8.1-3.7 89.9-78.2 114.5-73.3c9.3 1.9 49.2 7 52.1 34.9c3.1 29.6-21 74.9-3.4 79.8c23.8 6.6 59.6 30.4 86.4 35.2c18.3 3.3 33.4-13.8 33.6-5.6c.8 38.4 24.4 125.3 44 118.4c24.8-8.8 27.2-232.2 79.2-233.6c62.6-1.7 118.9-14.9 119.6-8.5c5.8 51-20.9 255.1 4.4 391.7c5.7 30.8-304.6-89.5-343.1-93.3c-17.7-1.8 28.3-46.6 11.4-52.4c-11.2-3.8-56-14.9-83.9-23c-9.1-2.6-20.5 58-34.9 57.9c-39.4-3.9-78.6 40.4-104.3 20.7c-18.2-14 22.5-49.2 11.8-67.8c-37.4-65.3-21.9-135.6-14.3-140.4c11.4-7.3 79.6 17.5 73.9 32.7c-3.8 10-1.7 6.4 4.8 13.2c14.9 15.8 65.1 30.2 75.9 31.1c6.6 .5 12.7-17.3 7.3-23.5c-5.1-5.9-23.4-10.8-34-18.1Z" stroke="none" fill="none" stroke-width="10"/></svg>